<svg xmlns="http://www.w3.org/2000/svg" viewBox="0 0 545.1 322.63" fill="url(#MyGradient)">
<defs>
        <linearGradient id="MyGradient">
          <stop offset="5%" stop-color="#3494E6" />
          <stop offset="95%" stop-color="#EC6EAD" />
        </linearGradient>
      </defs>
<path d="M260.72 147.8a3.27 3.27 0 00-3.2-.36c-3.21.69-5.2-.31-5.56-3.54-.34-3.06-1.82-6-.85-9.26a10.17 10.17 0 00-.06-3.25c-.11-2.14.54-3.72 2.82-4.33a16.2 16.2 0 002.42-1.16 10.65 10.65 0 005 .54c5.57-.55 10.93-2.22 16.46-2.94 2.33-.3 3.87-1.85 5.3-3.55 3.34-4 6.72-7.87 10-11.85 4.18-5 8.92-9.54 13.42-14.28q12.51-13.22 25.09-26.38c5.54-5.83 11.31-11.44 17.36-16.73 1.43-1.25 2.63-2.72 4.2-3.85a9.17 9.17 0 017.26-1.49 3.35 3.35 0 012.76 4.55 40.82 40.82 0 01-2.23 5.68 38.87 38.87 0 00-2.89 6.74 7.05 7.05 0 01-1.86 3.11A11.2 11.2 0 00354 68.4c-.55 1.24-.94 2.38-2.24 3.13a3.56 3.56 0 00-1.41 2.84 4.73 4.73 0 01-1.63 3.2 17.74 17.74 0 00-4 5.16c-2.08 3.58-5 6.43-7.95 9.28a82.65 82.65 0 00-8 8.68 40.49 40.49 0 01-6.62 6.66 67.59 67.59 0 00-6.13 5.95 17.92 17.92 0 01-5.48 4.22c-.32.14-.5.57-.7.83.33 1 1 .8 1.69.73a138 138 0 0124.05-.61c.41 0 .82 0 1.23.05 2.67.14 5.13.76 6.53 3.34 2.37-.52 4-2.09 5.93-3.06 5.43-2.73 10.38-1.49 14.94 1.73 4.86 3.45 6.31 8.69 6.3 14.38a11.32 11.32 0 01-1.5 4.62c-2.17 4.52-3.69 9.38-6.94 13.33a58.79 58.79 0 00-4.87 6.52c-1.65 2.67-2.86 5.52-4.26 8.29-.1.19.07.52.15 1a10.23 10.23 0 005-.48 47 47 0 006.85-2.64 139.67 139.67 0 0016.7-9.39c5.49-3.55 10.67-7.53 16-11.28 4.65-3.26 8.19-7.59 11.5-12.1 4-5.48 7.87-11.08 11.85-16.59 1.11-1.54 2.39-3 3.62-4.41a4.34 4.34 0 01.94-.77 4.58 4.58 0 015-.22c1.55.87 1.49 2.49 1.48 4a4.16 4.16 0 01-.34 1.59c-3 6.54-6.28 12.84-10.9 18.45a89.46 89.46 0 00-7.62 10.06 117.7 117.7 0 01-7.05 9.53 8.06 8.06 0 01-1.75 1.7 25 25 0 00-6.3 6.89c-.83 1.26-1.79 2.39-1.93 4a3.51 3.51 0 01-.47 1.56c-2.87 4.74-5.24 9.8-8.78 14.13-.68.85-.71.82-2.69 1.52-3.46-4.2-3.69-9.56-.69-16.81-.63-.73-1.26-.27-1.78.08-2.6 1.73-5.06 3.7-7.78 5.24-4.84 2.73-9.53 5.81-14.84 7.64-2.95 1-5.6 2.72-8.7 3.44a14.86 14.86 0 00-5.26 2.74 5 5 0 01-4.36-4.44 25.74 25.74 0 01-.48-6.49c.09-1.47.43-3-.14-4.41-.95-.47-1.58.17-2.26.58a11.21 11.21 0 01-4.14 1.7c-3 .47-5.65 2-8.15 3.56-5.39 3.33-10.95 6.08-17.28 7a3.87 3.87 0 00-1.86.74 2.76 2.76 0 01-2.6.8c-1.49-.35-2.55.81-3.86 1.09a3.57 3.57 0 01-3.72-1c-1.75-1.88-3.27-3.64-3.54-6.57-.23-2.56-.91-4.93 0-7.54a10 10 0 00.08-4.47c-.32-2.4.82-4.53 1-6.82.07-.77.78-1.07 1.25-1.54 3.51-3.59 7.13-7.08 10.53-10.78a15.24 15.24 0 0112-5h2.71c1-1.53 2.72-2.36 4-3.73a1.49 1.49 0 00.4-1.84 1.44 1.44 0 00-1.73-.76c-3.43 1-7 .49-10.5 1.39-3.08.8-6.45.67-9.68.6a42.42 42.42 0 00-12.5 1.23 5.51 5.51 0 01-1.58.41c-3.37-.09-5.59 1.81-7.53 4.24-.84 1.06-1.6 2.24-3.14 2.42a2.53 2.53 0 00-1.64 1.12c-3.13 3.94-6.21 7.92-9.4 11.81-4.85 5.88-9.79 11.7-14.68 17.55a25.58 25.58 0 00-3.67 5.83c-1.47 3.23-2.75 4.27-6.25 5.51-2.15-1.71-3.77-3.69-3.51-6.8.15-1.88 0-3.79 0-5.58-.85-.83-1.61-.39-2.33-.11a159.88 159.88 0 01-22.22 6.87c-6.47 1.56-13 3.16-19.56 4.1-3.49.49-6.92 1.45-10.37 2.07-3.77.68-7.45 1.56-11.14 2.5a6.22 6.22 0 00-2.32.72c-2.08 1.55-4.3 1.45-6.62.66a11 11 0 00-1.63-.29 12.29 12.29 0 01-1.6-5.87c-.16-3.93 0-7.88-.61-11.78a9.6 9.6 0 01.61-5.59 4.12 4.12 0 00-.43-4.13c-.94-.15-1.33.44-1.79.94a68.25 68.25 0 01-10.29 9.27c-1.68 1.21-2.76 3-4.47 4.18a101.66 101.66 0 01-22.42 11.6 25.21 25.21 0 00-6.2 3.06 12.73 12.73 0 01-4.41 2.07 65.78 65.78 0 00-9.56 3.19 7 7 0 01-4.81.28 15.05 15.05 0 00-4.11-.57l-2.83 3c-2-2.06-2.52-4.78-3.43-7.26a10.61 10.61 0 01-.47-3.23 61.47 61.47 0 00-.87-8.11 70.65 70.65 0 01-.48-8.12 8 8 0 000-1.2 1.62 1.62 0 00-2.2-1.18c-.62.27-1.18.68-1.78 1-8.92 4.87-17.84 9.77-27 14.22-1.7.83-3.48 1.58-4.72 3.18l.57 1.84c-.19.22-.33.49-.55.61-3.08 1.65-6.65 2.39-9.22 5a3.67 3.67 0 01-1.82.89c-3 .62-5.33 2.71-8.07 3.92a4 4 0 00-2.66 3.86c-1.32.91-2.72.06-3.73.9-.74.83.45 1.88-.53 2.86-1.57.65-3.66-.67-5.1.72-2.6-.5-4.39-3.8-7.23-1.31-1.66-1.26-3.25-2.3-4.64-3.56a11.09 11.09 0 01-3.07-6.11c-.87-4.11-1.53-8.28-2-12.46-.32-2.83-.08-5.71-.22-8.57-.19-3.93-.47-7.87-.55-11.79a50.23 50.23 0 012-16.43 149.17 149.17 0 018.76-21.08 203.23 203.23 0 0112.72-22.26c6.16-9.15 12.44-18.24 20.89-25.56 2.36-2 4.34-4.6 6.9-6.33 3.83-2.6 7.13-5.85 11-8.4s7.3-5.22 11-7.72a68.1 68.1 0 0110.36-5.7c2.93-1.3 6-1.7 9.06-2.36a35.84 35.84 0 0114.19.31c7.78 1.46 13.3 6 15.85 13.67a36.29 36.29 0 011.28 5.13c.22 1.3.84 2.66-.06 4a1 1 0 00-.19.78c1.14 3.8-1 7.17-1.39 10.77a22.7 22.7 0 01-2.69 7.6c-1 1.94-1.68 4-2.62 6-2.07 0-2.74-1.55-3.22-3.09a23.64 23.64 0 00-2.21-5.7c-.29-.45-.59-.9-.92-1.43l-3.16-.81c-1.36.22-1.21 1.37-2 1.93-3.1.12-6.36.4-9.62.34a37.29 37.29 0 00-15.41 3.49c-7.2 3.09-13.34 7.88-19.58 12.49a136.89 136.89 0 00-22.31 20.31 101.23 101.23 0 00-9.83 13c-2.15 3.48-4.57 6.76-6.66 10.28-2.22 3.75-4.31 7.56-6.35 11.41a76.41 76.41 0 00-3.59 6.83 4.65 4.65 0 00.65 5 24.61 24.61 0 009.71 7.3 8.15 8.15 0 004.82.61A57.54 57.54 0 0040 179.72a366.43 366.43 0 0033-16.1c3-1.62 6-3.16 9-4.74 3.87-2.05 7.43-4.37 10.23-7.93a190.11 190.11 0 0116.63-18 94.26 94.26 0 0113.31-10.83c3.6-2.42 7.67-3.27 11.89-3.54a19.85 19.85 0 005.48-1.23c4.69-1.67 9.37-3.55 14.62-3.08a30.85 30.85 0 0112.84 3.62c4 2.26 5.75 6.17 6.32 10.49a26.75 26.75 0 01-.63 11.35 8.09 8.09 0 00-.41 4.3c1.46.53 2.22-.39 3-1 3-2.15 5.81-4.5 8.88-6.5q7.88-5.11 16-9.87c4.45-2.61 9-5 13.73-7.16 2.73-1.26 5.54-2.2 8.36-3.21 3.83-1.37 7-.06 9.76 2.41a25 25 0 013.34 3.06c.27 1.09.54 2.28.88 3.45a4.14 4.14 0 01-.3 3.53 23.13 23.13 0 00-2.1 5.72c-2.38 2.3-5.27 2.85-8.34 2.58-3.41-.3-5.88 1.69-8.54 3.22-.39.23-.54.87-.82 1.36l1.35 1a141.38 141.38 0 00-25.3 13 167 167 0 00-15.2 10.92 29.66 29.66 0 00-4.66 5.18c-1.57 2-.89 3.4 1.67 4.05 4.73 1.18 9.5.64 14.24.33a99 99 0 0010.1-1.57c7-1.17 13.85-2.65 20.65-4.5a133.12 133.12 0 0019.66-6.5q6.88-3.09 13.5-6.66a20.3 20.3 0 008.58-9.07zm-101.33-14.81a28.43 28.43 0 00-19.61 2.6c-1.57.8-3.29 1.27-3.7 3.4-.1.5-.93 1-1.51 1.26a51.91 51.91 0 00-8.92 6.42c-5.84 4.75-10.63 10.54-15.67 16.07-1.16 1.27-2.43 2.54-2.79 4.41-.07.4-.76.69-1 .92-1.88-.21-1.09-2.62-3.11-2.85-3 3.18-6.49 6.19-8.29 10.44a7.62 7.62 0 005.65 5.12 22.79 22.79 0 0010.54.46c13.08-2.45 24.35-9 35.42-15.94a2.42 2.42 0 00.61-.54c1.62-2.05 3.89-3.39 5.75-5.16 2.26-2.16 4.79-4.11 6.68-6.56a90.49 90.49 0 006.07-9.65 10.2 10.2 0 001.2-4.3 6.7 6.7 0 00-4.86-7.44c-1.23-.4-1.75.35-2.46 1.34zm158.67 33.57c3.84-1.67 7.62-3.17 11.28-4.93 4.64-2.24 9.17-4.7 13.76-7a6.48 6.48 0 003.65-4.14 3.57 3.57 0 011.77-2.43 12.44 12.44 0 012.19 0 3.82 3.82 0 003.07-.73 33.9 33.9 0 006.65-6c1.77-2.2 1.63-2.94-.74-5.35-.93-.18-.8 1.05-1.92 1.08a9.93 9.93 0 00-3.23-.61 6.42 6.42 0 00-4.93 1.56c-2 1.93-4.45 3.06-6.8 4.38-4.88 2.76-9.05 6.47-13.34 10a113.69 113.69 0 00-8.35 7.79c-1.54 1.57-2.39 3.7-3.52 5.6-.03.07.12.23.46.78zm-12 1.41c2.52.48 2.52.48 4.35-1.05-.09-1.39-.16-2.85-.28-4.32 0-.24-.25-.46-.38-.69-1.73.25-1.93.3-2.19 1.1-.5 1.64-.97 3.3-1.46 4.96z"/>
<path d="M134.32 295.47a2.86 2.86 0 001.88 1.53 29.34 29.34 0 0011.79.68 158.75 158.75 0 0022-4.24c8.56-2.26 17.2-4.19 25.79-6.28 1.85-.45 3.67-1 5.52-1.51 3.28-.84 6.6-1.57 9.86-2.47 4.56-1.27 9.2-2.27 13.61-4.08 2.38-1 4.91-1.59 7.38-2.37a7 7 0 004.38-4 59.83 59.83 0 0132.09-28.61c3-1 6.11-1 9.13-1.69a5.08 5.08 0 013.17.57c1.73.89 3.36.67 5.14.31 5.87-1.2 11.76-2.34 17.82-2 5.3.28 9.87 2.12 12.92 6.64 1.47 2.19 3 4.46 1.94 7.55-.43 1.3-.72 3.22.54 4.56.4-.05.8 0 .89-.13 2.69-4.07 5.65-8 7.9-12.31 1.68-3.2 3.91-6.19 4.72-9.87.28-1.26 1.28-2.36 1.89-3.43 6-1.22 10 2.29 9.7 8.2a18.32 18.32 0 00-.23 2.42 30.63 30.63 0 00.69 3.4c-.49 1.59-1.74 3.1-1.53 5.19s-1.71 2.89-2.87 3.84a3.82 3.82 0 00.4 3.08c-.21.27-.44.59-.69.89a4.81 4.81 0 00-1.36 3.72c.35 3.6-1.07 6.61-2.94 9.56-1 1.53-2.33 2.91-2.86 4.55.7.89 1.19.55 1.64.27 3.83-2.34 7.72-4.59 11.45-7.08 4.3-2.87 8.64-5.69 12.7-8.93s8.1-6.87 12.11-10.36 8-6.51 12-9.73a2.08 2.08 0 01.77-.2c2.16 1.49 2.21 1.5 1.69 3.39a4.85 4.85 0 000 3.85c2-2.18 4.18-3.71 5.8-5.84a97.89 97.89 0 0110.36-11c8.22-7.91 18.54-11 29.41-12.87a50.9 50.9 0 018.53-.65c3.14 0 5.76 1.37 8.37 2.83a4.25 4.25 0 012.22 3.27c.4 3.5.91 7-.6 10.44a4 4 0 00-.49 1.93c.27 2.15-.66 4-1.21 5.94-1.16 4.16-3.92 7-7.2 9.57a85.72 85.72 0 01-18.47 11 29.82 29.82 0 00-5.64 3.25c-1.79 1.31-3.84 2.07-5.69 3.22a6.48 6.48 0 01-4.74.72 5.66 5.66 0 01-4.16-2.24c-.95-1.38-2.14-1.32-3.46-.15q-5.79 5.15-11.49 10.38c-1.1 1-2 2-3.79 2-1.46 0-2.16 1.44-2.68 2.64 0 1.13.86 1.39 1.62 1.69a14.85 14.85 0 004.69 1.31 56.9 56.9 0 0014.22-.82c9.34-1.91 18.51-4.49 27.62-7.28s18.58-5.36 27.77-8.35c6.6-2.14 13.25-4.14 19.95-5.94 5.13-1.38 10.34-2.46 15.53-3.63 2.33-.52 2.89-.42 5.54.38.45 3.42-.1 4.9-3 5.63s-4.93 2.25-7.37 3.41c-1.07.51-2.25 1-2.58 2.43-.22 1-1.14 1.15-1.9 1.35-3.4.93-6.61 2.5-10.11 3.14a6.52 6.52 0 00-3 1.23 11.94 11.94 0 01-8 2.58c-2.58 0-4.61 1.57-7 2.14a45.29 45.29 0 00-9.3 3c-4.64 2.25-9.82 3-14.31 5.8-2.8 1.76-6.32 2.43-9.58 3.37s-7 1.39-10.29 2.61c-3.82 1.42-7.75 2.39-11.61 3.62-2.43.77-4.92 1.23-6.87 3.18a5.33 5.33 0 01-4.14 1.26 82.46 82.46 0 01-10.55-1 12.49 12.49 0 01-9.7-7.14c-2.11-4.22-1.92-8.64-2.31-13.06-.28-3.22-.63-6.44-.93-9.52a1.62 1.62 0 00-2 .38 53.06 53.06 0 01-10.78 7.29 75.93 75.93 0 00-7.64 4.69c-4.09 2.71-8.26 5.28-12.46 7.81a47.71 47.71 0 00-9 6.93 5.33 5.33 0 01-1.23 1.06c-3.38 1.61-5.59 4.47-7.64 7.2a1.89 1.89 0 01-2.24-1 15.62 15.62 0 01-1.59-4.19 20.25 20.25 0 00-1.1-3.49 16.5 16.5 0 01-1.54-6.62c-.12-2.28-.49-4.55-.78-7-2 .3-3.07 1.78-4.34 2.81-3.69 3-7.29 6.1-11.25 8.78-2.13 1.43-3.95 3.31-6.15 4.71-3.3 2.1-6.45 4.47-10.44 5.22a5.52 5.52 0 00-1.8 1c-3.13 2-6.67 3-10.2 4a56.59 56.59 0 00-7.24 2.67 9.35 9.35 0 01-4.27 1.26c-1.9-.08-3.15 1.86-5 1.57a15.52 15.52 0 00-4.85-.25c-.13 0-.25.08-.4.13l-.76 1.51c-.35-.16-.85-.22-1.05-.49a32.51 32.51 0 01-6.14-15.68 27.84 27.84 0 00-1.79-7.92 10.68 10.68 0 01-1.18-5.92c.05-.33-.31-.72-.46-1a2 2 0 00-2.3.51 10.31 10.31 0 01-4.31 2.24 12.62 12.62 0 00-4.21 2.14c-1.49 1.18-3.75 1.44-5.71 2-3.8 1-7.6 2.07-11.44 2.91a16.06 16.06 0 00-8 4.55 8 8 0 01-3.89 2.06c-5 1.27-10 2.47-15.07 3.76-4.58 1.18-9.24 2.06-13.66 3.82a37.4 37.4 0 01-10.34 2.06c-4.32.45-8.62 1.05-12.92 1.63a6.1 6.1 0 00-1.53.64c.2.75.38 1.38.55 2-.25.06-.56.23-.75.14-.86-.4-1.69-.87-2.53-1.32-.47-.26-1-.82-1.41-.76-4.28.53-4.76-3.15-5.83-5.64-1.15-2.71-1.51-5.77-3-8.43a5.2 5.2 0 01-.49-2c-.53-5-1.87-9.89-2.92-14.81-1.17-5.41-.55-10.77.88-16.08 1.68-6.21 5.4-11.25 9.32-16.1a105.21 105.21 0 0115-15c5.65-4.66 11.28-9.36 17.55-13.19a31.39 31.39 0 003-2.15 112.24 112.24 0 0116-10.52c6.79-3.7 13.57-7.42 20.48-10.9a81.13 81.13 0 0110.88-4.51c3.47-1.16 6.84-2.67 10.41-3.55 10.55-2.59 21.2-3.56 32-1.7 2.39.41 4.8.87 6.82 2.51 1.54 1.26 2.23 3.06 3.61 4.53-1.23 2.6 0 5.1 0 7.65 0 1.8.1 3.5-.71 5.15a2.33 2.33 0 00-.35 1.16 3.59 3.59 0 01-2 3.75c-1.38.83-2.87.5-4.3-.11a11.93 11.93 0 00-1.61-.48c-1.19.09-1.29.93-1.81 1.38a61.65 61.65 0 00-11.28-.15c-.55 1.11.08 1.68.78 2.09a7.17 7.17 0 003.48 1.09 4 4 0 012.24.4 1.4 1.4 0 01-.75 1.81 8.07 8.07 0 01-4.34 1 6.84 6.84 0 00-4.65 1.08 8.14 8.14 0 01-5.06 1.29 9.4 9.4 0 00-5.35 1.38c-.12 1.07.54 1.26 1.24 1.29 1.08.05 2.16 0 3.79 0a4.76 4.76 0 01-3.09 1.47c-1.73.34-3.47.69-5.22.91a5.07 5.07 0 00-3.3 1.42 7.46 7.46 0 01-3.57 1.88c-8 2.57-15.46 6.52-23.07 10a7.79 7.79 0 00-2.73 1.75c-2.07 2.51-5 3.79-7.59 5.48a59.79 59.79 0 01-7.34 4.42c-2.49 1.12-4.22 3.43-6.94 4.08a1.46 1.46 0 00-.68.45c-4.35 4.7-10.7 6.77-15.09 11.46-1.07 1.13-2.88 1.53-4.1 2.56-2.48 2.1-4.81 4.39-7.17 6.62-1.24 1.16-2.1 2.84-4.29 2.54-.48-.06-1.23.62-1.61 1.14-1.67 2.33-3.67 4.39-4.89 7zm142-22.69c0 2.62-.08 3-2.63 3.55-8.47 1.7-14.05 7.91-20.44 12.85a3.23 3.23 0 00-.79.93 25.52 25.52 0 01-3.95 4.66c-1.57 1.69-3.12 3.44-3.3 5.82a2.88 2.88 0 002.43 1.4c4.55.85 8.9-.47 13.24-1.25 4.67-.85 9.05-2.83 13.33-4.9a48.23 48.23 0 007.44-4.23c4.52-3.27 9.07-6.49 13.3-10.17a86.82 86.82 0 0013.95-15.29c.61-.85 1.38-1.72 1.21-2.95a4.29 4.29 0 00-2.8-1.43 14.52 14.52 0 01-3.55-.87 6.93 6.93 0 00-4-.44c-3.34.53-6.68 1.1-10 1.79-2.65.55-5.24 1.55-7.91 1.86a5.85 5.85 0 00-4.13 2v2.61c-1.85.71-4.55.43-4.63 3.36 1 1.02 2.23-.07 3.23.7zM545.1 5.61c-1.63 1.95-2.32 4.46-3.49 6.73a86.25 86.25 0 01-7.42 12.68c-1.69 2.25-2.46 5.18-5 6.79-2.26 5.37-7.16 8.38-11.06 12.26-4.24 4.22-8.76 8.16-13 12.42a94.85 94.85 0 00-6.8 8.14 42.4 42.4 0 01-6.51 7.24c-2.59 2.09-4.54 5-6.7 7.63-4.27 5.14-8.31 10.48-12.79 15.41a138.4 138.4 0 01-11.8 11.3 46.14 46.14 0 00-7.77 9.45c-3.19 4.74-6.12 9.65-9.08 14.54a38.73 38.73 0 00-3.2 6.16 22.87 22.87 0 01-3.95 6.57 17.1 17.1 0 00-2.18 3.44c-2.13 4.28-5 8.08-7.64 12a7.08 7.08 0 00-1.69 3.65c.69 1.09 1.61.72 2.5.4 5.11-1.84 10.22-3.72 15.34-5.54 8.46-3 17-5.59 25.64-8.12 3-.88 6-1.81 9-2.68s6.31-1.71 9.44-2.64a2.34 2.34 0 013.13 1.32 12.4 12.4 0 01-5.69 4.94c-3.53 1.41-7.05 2.87-10.64 4.13-4.63 1.62-9 4-13.84 4.95-3.71 2.48-8.19 2.89-12.19 4.55-5.77 2.4-11.88 4-17.23 7.4a10.39 10.39 0 00-2.39 1.53c-2.11 2.37-4.84 3.95-7.19 6-2.18 1.86-4.86 2.35-7.2 3.69-1.21.69-2.64.12-3.76-.84a9.24 9.24 0 01-3.1-6.78c-.17-2.3.19-4.59 0-6.91a4.58 4.58 0 013-4.52c3.2-1.28 5.31-3.74 7.4-6.19 3.54-4.13 6.95-8.4 10.24-12.74a57.7 57.7 0 003.78-6.3c5.12-9 10-18.13 15.39-27a139.88 139.88 0 0114.9-20.47 502.57 502.57 0 0036.63-45.57c3-4.37 6.67-8.27 10-12.4a158.31 158.31 0 0113.2-14q3.66-3.56 7.56-6.86a38.18 38.18 0 007.15-8.33 15.53 15.53 0 011.15-1.68 3.92 3.92 0 016.49.7 9.08 9.08 0 011.37 3.55zM431.47 109.24a52.66 52.66 0 01-.91-10 5.69 5.69 0 014.27-5.64 5.08 5.08 0 016.23 5.38 5.76 5.76 0 01-1.39 3.31 31.68 31.68 0 00-4 5.12 3.61 3.61 0 01-4.2 1.83z"/>
</svg>